<?xml version="1.0" encoding="UTF-8" standalone="no"?>
<svg width="800" height="500" xmlns="http://www.w3.org/2000/svg">
  <style>
    .box {
      fill: #f0f0f0;
      stroke: #333;
      stroke-width: 2;
      rx: 10;
      ry: 10;
    }
    .arrow {
      stroke: #333;
      stroke-width: 2;
      fill: none;
      marker-end: url(#arrowhead);
    }
    .primary {
      fill: #d0e8ff;
    }
    .secondary {
      fill: #e8f4d0;
    }
    .deploy {
      fill: #ffd0d0;
    }
    .title {
      font-family: Arial, sans-serif;
      font-size: 24px;
      font-weight: bold;
      text-anchor: middle;
    }
    .subtitle {
      font-family: Arial, sans-serif;
      font-size: 18px;
      text-anchor: middle;
    }
    .boxtext {
      font-family: Arial, sans-serif;
      font-size: 14px;
      font-weight: bold;
      text-anchor: middle;
    }
    .note {
      font-family: Arial, sans-serif;
      font-size: 12px;
      fill: #666;
      text-anchor: middle;
    }
  </style>
  
  <!-- Arrow marker definition -->
  <defs>
    <marker id="arrowhead" markerWidth="10" markerHeight="7" refX="9" refY="3.5" orient="auto">
      <polygon points="0 0, 10 3.5, 0 7" fill="#333" />
    </marker>
  </defs>
  
  <!-- Title -->
  <text x="400" y="40" class="title">LeadLink CI/CD Pipeline Workflow</text>
  
  <!-- Trigger Events -->
  <rect x="50" y="80" width="150" height="80" class="box" />
  <text x="125" y="110" class="boxtext">Trigger Events</text>
  <text x="125" y="130" class="note">Git Push / PR</text>
  <text x="125" y="145" class="note">Manual Workflow</text>
  
  <!-- Setup and Validation -->
  <rect x="250" y="80" width="150" height="80" class="box primary" />
  <text x="325" y="110" class="boxtext">Setup &amp; Validation</text>
  <text x="325" y="130" class="note">Environment Setup</text>
  <text x="325" y="145" class="note">Configuration Check</text>
  
  <!-- Quality Gates -->
  <rect x="450" y="80" width="150" height="80" class="box primary" />
  <text x="525" y="110" class="boxtext">Quality Gates</text>
  <text x="525" y="130" class="note">Linting / Type Check</text>
  <text x="525" y="145" class="note">Security Scanning</text>
  
  <!-- Testing Phase -->
  <rect x="650" y="80" width="150" height="80" class="box primary" />
  <text x="725" y="110" class="boxtext">Testing</text>
  <text x="725" y="130" class="note">Unit / Integration Tests</text>
  <text x="725" y="145" class="note">Firebase Emulators</text>
  
  <!-- Build Phase -->
  <rect x="650" y="200" width="150" height="80" class="box secondary" />
  <text x="725" y="230" class="boxtext">Build</text>
  <text x="725" y="250" class="note">Next.js Application</text>
  <text x="725" y="265" class="note">Firebase Functions</text>
  
  <!-- Advanced Testing -->
  <rect x="450" y="200" width="150" height="80" class="box secondary" />
  <text x="525" y="230" class="boxtext">Advanced Testing</text>
  <text x="525" y="250" class="note">E2E / Visual Tests</text>
  <text x="525" y="265" class="note">Performance Testing</text>
  
  <!-- Multi-Tenant Validation -->
  <rect x="250" y="200" width="150" height="80" class="box secondary" />
  <text x="325" y="230" class="boxtext">Multi-Tenant</text>
  <text x="325" y="250" class="boxtext">Validation</text>
  <text x="325" y="265" class="note">Isolation Testing</text>
  
  <!-- Deployments -->
  <g>
    <rect x="250" y="320" width="150" height="80" class="box deploy" />
    <text x="325" y="350" class="boxtext">Staging Deploy</text>
    <text x="325" y="370" class="note">Firebase Hosting</text>
    <text x="325" y="385" class="note">Functions Deploy</text>
  </g>
  
  <g>
    <rect x="450" y="320" width="150" height="80" class="box deploy" />
    <text x="525" y="350" class="boxtext">Production Deploy</text>
    <text x="525" y="370" class="note">Firebase Hosting</text>
    <text x="525" y="385" class="note">Functions Deploy</text>
  </g>
  
  <!-- Notifications -->
  <rect x="350" y="440" width="150" height="40" class="box" />
  <text x="425" y="465" class="boxtext">Notifications</text>
  
  <!-- Arrows -->
  <!-- Horizontal flow -->
  <path d="M200 120 L250 120" class="arrow" />
  <path d="M400 120 L450 120" class="arrow" />
  <path d="M600 120 L650 120" class="arrow" />
  
  <!-- Vertical flow from Testing to Build -->
  <path d="M725 160 L725 200" class="arrow" />
  
  <!-- Flow from Build to Advanced Testing -->
  <path d="M650 240 L600 240" class="arrow" />
  
  <!-- Flow from Advanced Testing to Multi-Tenant -->
  <path d="M450 240 L400 240" class="arrow" />
  
  <!-- Flow to deployments -->
  <path d="M325 280 L325 320" class="arrow" />
  <path d="M525 280 L525 320" class="arrow" />
  
  <!-- Flow to notifications -->
  <path d="M325 400 L325 460 L350 460" class="arrow" />
  <path d="M525 400 L525 460 L500 460" class="arrow" />
</svg> 